<mxfile host="Electron" agent="Mozilla/5.0 (X11; Linux x86_64) AppleWebKit/537.36 (KHTML, like Gecko) draw.io/27.0.9 Chrome/134.0.6998.205 Electron/35.4.0 Safari/537.36" version="27.0.9">
  <diagram name="Página-1" id="lB6uuaJjfKBQThTT5O2M">
    <mxGraphModel dx="3755" dy="2757" grid="1" gridSize="10" guides="1" tooltips="1" connect="1" arrows="1" fold="1" page="1" pageScale="1" pageWidth="827" pageHeight="1169" math="0" shadow="0">
      <root>
        <mxCell id="0" />
        <mxCell id="1" parent="0" />
        <mxCell id="GVdBxq70To4M7T33F03A-6" style="edgeStyle=orthogonalEdgeStyle;rounded=0;orthogonalLoop=1;jettySize=auto;html=1;" parent="1" source="GVdBxq70To4M7T33F03A-2" edge="1">
          <mxGeometry relative="1" as="geometry">
            <mxPoint x="320" y="-755" as="targetPoint" />
            <mxPoint x="200" y="-755" as="sourcePoint" />
          </mxGeometry>
        </mxCell>
        <mxCell id="GVdBxq70To4M7T33F03A-12" style="edgeStyle=orthogonalEdgeStyle;rounded=0;orthogonalLoop=1;jettySize=auto;html=1;exitX=1;exitY=0.25;exitDx=0;exitDy=0;entryX=0;entryY=0.125;entryDx=0;entryDy=0;entryPerimeter=0;" parent="1" source="GVdBxq70To4M7T33F03A-7" target="GVdBxq70To4M7T33F03A-13" edge="1">
          <mxGeometry relative="1" as="geometry">
            <mxPoint x="440" y="-754.952380952381" as="targetPoint" />
          </mxGeometry>
        </mxCell>
        <mxCell id="GVdBxq70To4M7T33F03A-15" style="edgeStyle=orthogonalEdgeStyle;rounded=0;orthogonalLoop=1;jettySize=auto;html=1;exitX=1;exitY=0.25;exitDx=0;exitDy=0;entryX=0;entryY=0.25;entryDx=0;entryDy=0;" parent="1" source="GVdBxq70To4M7T33F03A-7" target="GVdBxq70To4M7T33F03A-13" edge="1">
          <mxGeometry relative="1" as="geometry">
            <mxPoint x="480" y="-705" as="targetPoint" />
            <Array as="points">
              <mxPoint x="440" y="-755" />
              <mxPoint x="440" y="-735" />
            </Array>
          </mxGeometry>
        </mxCell>
        <mxCell id="GVdBxq70To4M7T33F03A-7" value="MEMÓRIA&lt;br&gt;DE&lt;br&gt;INSTRUÇÕES" style="whiteSpace=wrap;html=1;" parent="1" vertex="1">
          <mxGeometry x="320" y="-775" width="80" height="80" as="geometry" />
        </mxCell>
        <mxCell id="GVdBxq70To4M7T33F03A-13" value="&lt;font style=&quot;font-size: 9px;&quot;&gt;BANCO DE REGISTRADORES&lt;/font&gt;" style="whiteSpace=wrap;html=1;" parent="1" vertex="1">
          <mxGeometry x="550" y="-775" width="160" height="160" as="geometry" />
        </mxCell>
        <mxCell id="GVdBxq70To4M7T33F03A-2" value="PC" style="whiteSpace=wrap;html=1;" parent="1" vertex="1">
          <mxGeometry x="239.37" y="-775" width="40" height="40" as="geometry" />
        </mxCell>
        <mxCell id="FG7sZSd8x5ParOeCWbwj-2" value="" style="group" parent="1" vertex="1" connectable="0">
          <mxGeometry x="160" y="-780" width="40" height="75" as="geometry" />
        </mxCell>
        <mxCell id="FG7sZSd8x5ParOeCWbwj-3" value="" style="rounded=1;whiteSpace=wrap;html=1;rotation=-90;" parent="FG7sZSd8x5ParOeCWbwj-2" vertex="1">
          <mxGeometry x="-17.5" y="22.5" width="75" height="30" as="geometry" />
        </mxCell>
        <mxCell id="FG7sZSd8x5ParOeCWbwj-4" value="&lt;font style=&quot;font-size: 8px;&quot;&gt;MUX&lt;/font&gt;" style="text;html=1;align=center;verticalAlign=middle;resizable=0;points=[];autosize=1;strokeColor=none;fillColor=none;" parent="FG7sZSd8x5ParOeCWbwj-2" vertex="1">
          <mxGeometry y="20" width="40" height="30" as="geometry" />
        </mxCell>
        <mxCell id="FG7sZSd8x5ParOeCWbwj-7" style="edgeStyle=orthogonalEdgeStyle;rounded=0;orthogonalLoop=1;jettySize=auto;html=1;entryX=0;entryY=0.5;entryDx=0;entryDy=0;" parent="1" source="FG7sZSd8x5ParOeCWbwj-4" target="GVdBxq70To4M7T33F03A-2" edge="1">
          <mxGeometry relative="1" as="geometry">
            <Array as="points">
              <mxPoint x="230" y="-755" />
              <mxPoint x="230" y="-755" />
            </Array>
          </mxGeometry>
        </mxCell>
        <mxCell id="FG7sZSd8x5ParOeCWbwj-11" style="edgeStyle=orthogonalEdgeStyle;rounded=0;orthogonalLoop=1;jettySize=auto;html=1;exitX=1;exitY=0.5;exitDx=0;exitDy=0;" parent="1" source="FG7sZSd8x5ParOeCWbwj-8" edge="1">
          <mxGeometry relative="1" as="geometry">
            <mxPoint x="150" y="-724.7142857142857" as="targetPoint" />
          </mxGeometry>
        </mxCell>
        <mxCell id="FG7sZSd8x5ParOeCWbwj-8" value="Valores possíveis do PC" style="text;html=1;align=center;verticalAlign=middle;whiteSpace=wrap;rounded=0;fontColor=light-dark(#000000,#FFFFFF);" parent="1" vertex="1">
          <mxGeometry x="70" y="-740" width="60" height="30" as="geometry" />
        </mxCell>
        <mxCell id="aJT4omSPCbD_Sl-qem5B-4" value="" style="endArrow=classic;html=1;rounded=0;entryX=1;entryY=0.5;entryDx=0;entryDy=0;" parent="1" edge="1" target="0ZDQWlUVKnihuqIqSZee-8">
          <mxGeometry width="50" height="50" relative="1" as="geometry">
            <mxPoint x="440" y="-740" as="sourcePoint" />
            <mxPoint x="440" y="-580" as="targetPoint" />
            <Array as="points">
              <mxPoint x="440" y="-620" />
            </Array>
          </mxGeometry>
        </mxCell>
        <mxCell id="0ZDQWlUVKnihuqIqSZee-27" style="edgeStyle=orthogonalEdgeStyle;rounded=0;orthogonalLoop=1;jettySize=auto;html=1;exitX=1;exitY=0.5;exitDx=0;exitDy=0;" edge="1" parent="1" source="aJT4omSPCbD_Sl-qem5B-43">
          <mxGeometry relative="1" as="geometry">
            <mxPoint x="1160" y="-706.4736842105262" as="targetPoint" />
          </mxGeometry>
        </mxCell>
        <mxCell id="aJT4omSPCbD_Sl-qem5B-43" value="RAM" style="rounded=0;whiteSpace=wrap;html=1;" parent="1" vertex="1">
          <mxGeometry x="960" y="-813.75" width="120" height="213.75" as="geometry" />
        </mxCell>
        <mxCell id="aJT4omSPCbD_Sl-qem5B-45" value="" style="endArrow=classic;html=1;rounded=0;" parent="1" edge="1">
          <mxGeometry width="50" height="50" relative="1" as="geometry">
            <mxPoint x="680" y="-820" as="sourcePoint" />
            <mxPoint x="680" y="-780" as="targetPoint" />
          </mxGeometry>
        </mxCell>
        <mxCell id="aJT4omSPCbD_Sl-qem5B-46" value="possiveis dados a serem escritos no banco de registradores" style="text;html=1;align=center;verticalAlign=middle;whiteSpace=wrap;rounded=0;" parent="1" vertex="1">
          <mxGeometry x="630" y="-883.75" width="100" height="70" as="geometry" />
        </mxCell>
        <mxCell id="aJT4omSPCbD_Sl-qem5B-49" value="" style="endArrow=classic;html=1;rounded=0;exitX=1;exitY=0.675;exitDx=0;exitDy=0;exitPerimeter=0;" parent="1" source="GVdBxq70To4M7T33F03A-13" edge="1">
          <mxGeometry width="50" height="50" relative="1" as="geometry">
            <mxPoint x="740" y="-670" as="sourcePoint" />
            <mxPoint x="800" y="-667" as="targetPoint" />
          </mxGeometry>
        </mxCell>
        <mxCell id="aJT4omSPCbD_Sl-qem5B-50" value="" style="endArrow=classic;html=1;rounded=0;exitX=1;exitY=0.675;exitDx=0;exitDy=0;exitPerimeter=0;" parent="1" edge="1">
          <mxGeometry width="50" height="50" relative="1" as="geometry">
            <mxPoint x="710" y="-720" as="sourcePoint" />
            <mxPoint x="800" y="-720" as="targetPoint" />
          </mxGeometry>
        </mxCell>
        <mxCell id="aJT4omSPCbD_Sl-qem5B-53" value="" style="endArrow=classic;html=1;rounded=0;" parent="1" edge="1">
          <mxGeometry width="50" height="50" relative="1" as="geometry">
            <mxPoint x="900" y="-780" as="sourcePoint" />
            <mxPoint x="960" y="-780" as="targetPoint" />
          </mxGeometry>
        </mxCell>
        <mxCell id="0ZDQWlUVKnihuqIqSZee-2" style="edgeStyle=orthogonalEdgeStyle;rounded=0;orthogonalLoop=1;jettySize=auto;html=1;" edge="1" parent="1" source="0ZDQWlUVKnihuqIqSZee-1">
          <mxGeometry relative="1" as="geometry">
            <mxPoint x="150" y="-760" as="targetPoint" />
            <Array as="points">
              <mxPoint x="100" y="-900" />
              <mxPoint x="100" y="-760" />
            </Array>
          </mxGeometry>
        </mxCell>
        <mxCell id="0ZDQWlUVKnihuqIqSZee-1" value="&lt;font size=&quot;1&quot;&gt;REPETITION LOGICAL UNIT&lt;/font&gt;" style="whiteSpace=wrap;html=1;" vertex="1" parent="1">
          <mxGeometry x="160" y="-940" width="200" height="80" as="geometry" />
        </mxCell>
        <mxCell id="0ZDQWlUVKnihuqIqSZee-4" value="" style="shape=trapezoid;perimeter=trapezoidPerimeter;whiteSpace=wrap;html=1;fixedSize=1;rotation=-90;" vertex="1" parent="1">
          <mxGeometry x="777.51" y="-733.12" width="114.37" height="74.37" as="geometry" />
        </mxCell>
        <mxCell id="0ZDQWlUVKnihuqIqSZee-5" value="ULA" style="text;html=1;align=center;verticalAlign=middle;whiteSpace=wrap;rounded=0;" vertex="1" parent="1">
          <mxGeometry x="807" y="-710.94" width="60" height="30" as="geometry" />
        </mxCell>
        <mxCell id="0ZDQWlUVKnihuqIqSZee-8" value="&lt;font size=&quot;1&quot;&gt;UNIDADE DE CONTROLE&lt;/font&gt;" style="whiteSpace=wrap;html=1;" vertex="1" parent="1">
          <mxGeometry x="320" y="-660" width="80" height="80" as="geometry" />
        </mxCell>
        <mxCell id="0ZDQWlUVKnihuqIqSZee-10" value="&lt;font style=&quot;font-size: 9px;&quot;&gt;BANCO DE REGISTRADORES&lt;br&gt;VETORIAL&lt;/font&gt;" style="whiteSpace=wrap;html=1;" vertex="1" parent="1">
          <mxGeometry x="120" y="-540" width="120" height="120" as="geometry" />
        </mxCell>
        <mxCell id="0ZDQWlUVKnihuqIqSZee-11" value="" style="endArrow=classic;html=1;rounded=0;exitX=1;exitY=0.675;exitDx=0;exitDy=0;exitPerimeter=0;" edge="1" parent="1">
          <mxGeometry width="50" height="50" relative="1" as="geometry">
            <mxPoint x="240" y="-460.43999999999994" as="sourcePoint" />
            <mxPoint x="300" y="-460" as="targetPoint" />
          </mxGeometry>
        </mxCell>
        <mxCell id="0ZDQWlUVKnihuqIqSZee-12" value="" style="endArrow=classic;html=1;rounded=0;exitX=1;exitY=0.675;exitDx=0;exitDy=0;exitPerimeter=0;" edge="1" parent="1">
          <mxGeometry width="50" height="50" relative="1" as="geometry">
            <mxPoint x="240" y="-499.9999999999999" as="sourcePoint" />
            <mxPoint x="300" y="-500" as="targetPoint" />
          </mxGeometry>
        </mxCell>
        <mxCell id="0ZDQWlUVKnihuqIqSZee-13" value="" style="shape=trapezoid;perimeter=trapezoidPerimeter;whiteSpace=wrap;html=1;fixedSize=1;rotation=-90;" vertex="1" parent="1">
          <mxGeometry x="287" y="-503.6" width="80" height="47.19" as="geometry" />
        </mxCell>
        <mxCell id="0ZDQWlUVKnihuqIqSZee-16" style="edgeStyle=orthogonalEdgeStyle;rounded=0;orthogonalLoop=1;jettySize=auto;html=1;entryX=0;entryY=0.5;entryDx=0;entryDy=0;" edge="1" parent="1" source="0ZDQWlUVKnihuqIqSZee-14" target="0ZDQWlUVKnihuqIqSZee-15">
          <mxGeometry relative="1" as="geometry" />
        </mxCell>
        <mxCell id="0ZDQWlUVKnihuqIqSZee-14" value="&lt;font style=&quot;font-size: 8px;&quot;&gt;ULA&lt;br&gt;VETORIAL&lt;/font&gt;" style="text;html=1;align=center;verticalAlign=middle;whiteSpace=wrap;rounded=0;" vertex="1" parent="1">
          <mxGeometry x="297" y="-495" width="60" height="30" as="geometry" />
        </mxCell>
        <mxCell id="0ZDQWlUVKnihuqIqSZee-15" value="RAM" style="rounded=0;whiteSpace=wrap;html=1;" vertex="1" parent="1">
          <mxGeometry x="400" y="-520" width="90" height="80" as="geometry" />
        </mxCell>
        <mxCell id="0ZDQWlUVKnihuqIqSZee-28" value="&lt;font style=&quot;font-size: 9px;&quot;&gt;BANCO DE REGISTRADORES&lt;br&gt;VETORIAL&lt;/font&gt;" style="whiteSpace=wrap;html=1;" vertex="1" parent="1">
          <mxGeometry x="120" y="-380" width="120" height="120" as="geometry" />
        </mxCell>
        <mxCell id="0ZDQWlUVKnihuqIqSZee-29" value="" style="endArrow=classic;html=1;rounded=0;exitX=1;exitY=0.675;exitDx=0;exitDy=0;exitPerimeter=0;" edge="1" parent="1">
          <mxGeometry width="50" height="50" relative="1" as="geometry">
            <mxPoint x="240" y="-300.43999999999994" as="sourcePoint" />
            <mxPoint x="300" y="-300" as="targetPoint" />
          </mxGeometry>
        </mxCell>
        <mxCell id="0ZDQWlUVKnihuqIqSZee-30" value="" style="endArrow=classic;html=1;rounded=0;exitX=1;exitY=0.675;exitDx=0;exitDy=0;exitPerimeter=0;" edge="1" parent="1">
          <mxGeometry width="50" height="50" relative="1" as="geometry">
            <mxPoint x="240" y="-339.9999999999999" as="sourcePoint" />
            <mxPoint x="300" y="-340" as="targetPoint" />
          </mxGeometry>
        </mxCell>
        <mxCell id="0ZDQWlUVKnihuqIqSZee-31" value="" style="shape=trapezoid;perimeter=trapezoidPerimeter;whiteSpace=wrap;html=1;fixedSize=1;rotation=-90;" vertex="1" parent="1">
          <mxGeometry x="287" y="-343.6" width="80" height="47.19" as="geometry" />
        </mxCell>
        <mxCell id="0ZDQWlUVKnihuqIqSZee-32" style="edgeStyle=orthogonalEdgeStyle;rounded=0;orthogonalLoop=1;jettySize=auto;html=1;entryX=0;entryY=0.5;entryDx=0;entryDy=0;" edge="1" parent="1" source="0ZDQWlUVKnihuqIqSZee-33" target="0ZDQWlUVKnihuqIqSZee-34">
          <mxGeometry relative="1" as="geometry" />
        </mxCell>
        <mxCell id="0ZDQWlUVKnihuqIqSZee-33" value="&lt;font style=&quot;font-size: 8px;&quot;&gt;ULA&lt;br&gt;VETORIAL&lt;/font&gt;" style="text;html=1;align=center;verticalAlign=middle;whiteSpace=wrap;rounded=0;" vertex="1" parent="1">
          <mxGeometry x="297" y="-335" width="60" height="30" as="geometry" />
        </mxCell>
        <mxCell id="0ZDQWlUVKnihuqIqSZee-34" value="RAM" style="rounded=0;whiteSpace=wrap;html=1;" vertex="1" parent="1">
          <mxGeometry x="400" y="-360" width="90" height="80" as="geometry" />
        </mxCell>
        <mxCell id="0ZDQWlUVKnihuqIqSZee-35" value="&lt;font style=&quot;font-size: 9px;&quot;&gt;BANCO DE REGISTRADORES&lt;br&gt;VETORIAL&lt;/font&gt;" style="whiteSpace=wrap;html=1;" vertex="1" parent="1">
          <mxGeometry x="521.88" y="-540" width="120" height="120" as="geometry" />
        </mxCell>
        <mxCell id="0ZDQWlUVKnihuqIqSZee-36" value="" style="endArrow=classic;html=1;rounded=0;exitX=1;exitY=0.675;exitDx=0;exitDy=0;exitPerimeter=0;" edge="1" parent="1">
          <mxGeometry width="50" height="50" relative="1" as="geometry">
            <mxPoint x="641.88" y="-460.43999999999994" as="sourcePoint" />
            <mxPoint x="701.88" y="-460" as="targetPoint" />
          </mxGeometry>
        </mxCell>
        <mxCell id="0ZDQWlUVKnihuqIqSZee-37" value="" style="endArrow=classic;html=1;rounded=0;exitX=1;exitY=0.675;exitDx=0;exitDy=0;exitPerimeter=0;" edge="1" parent="1">
          <mxGeometry width="50" height="50" relative="1" as="geometry">
            <mxPoint x="641.88" y="-499.9999999999999" as="sourcePoint" />
            <mxPoint x="701.88" y="-500" as="targetPoint" />
          </mxGeometry>
        </mxCell>
        <mxCell id="0ZDQWlUVKnihuqIqSZee-38" value="" style="shape=trapezoid;perimeter=trapezoidPerimeter;whiteSpace=wrap;html=1;fixedSize=1;rotation=-90;" vertex="1" parent="1">
          <mxGeometry x="688.88" y="-503.6" width="80" height="47.19" as="geometry" />
        </mxCell>
        <mxCell id="0ZDQWlUVKnihuqIqSZee-39" style="edgeStyle=orthogonalEdgeStyle;rounded=0;orthogonalLoop=1;jettySize=auto;html=1;entryX=0;entryY=0.5;entryDx=0;entryDy=0;" edge="1" parent="1" source="0ZDQWlUVKnihuqIqSZee-40" target="0ZDQWlUVKnihuqIqSZee-41">
          <mxGeometry relative="1" as="geometry" />
        </mxCell>
        <mxCell id="0ZDQWlUVKnihuqIqSZee-40" value="&lt;font style=&quot;font-size: 8px;&quot;&gt;ULA&lt;br&gt;VETORIAL&lt;/font&gt;" style="text;html=1;align=center;verticalAlign=middle;whiteSpace=wrap;rounded=0;" vertex="1" parent="1">
          <mxGeometry x="698.88" y="-495" width="60" height="30" as="geometry" />
        </mxCell>
        <mxCell id="0ZDQWlUVKnihuqIqSZee-41" value="RAM" style="rounded=0;whiteSpace=wrap;html=1;" vertex="1" parent="1">
          <mxGeometry x="801.88" y="-520" width="90" height="80" as="geometry" />
        </mxCell>
        <mxCell id="0ZDQWlUVKnihuqIqSZee-42" value="&lt;font style=&quot;font-size: 9px;&quot;&gt;BANCO DE REGISTRADORES&lt;br&gt;VETORIAL&lt;/font&gt;" style="whiteSpace=wrap;html=1;" vertex="1" parent="1">
          <mxGeometry x="521.88" y="-380" width="120" height="120" as="geometry" />
        </mxCell>
        <mxCell id="0ZDQWlUVKnihuqIqSZee-43" value="" style="endArrow=classic;html=1;rounded=0;exitX=1;exitY=0.675;exitDx=0;exitDy=0;exitPerimeter=0;" edge="1" parent="1">
          <mxGeometry width="50" height="50" relative="1" as="geometry">
            <mxPoint x="641.88" y="-300.43999999999994" as="sourcePoint" />
            <mxPoint x="701.88" y="-300" as="targetPoint" />
          </mxGeometry>
        </mxCell>
        <mxCell id="0ZDQWlUVKnihuqIqSZee-44" value="" style="endArrow=classic;html=1;rounded=0;exitX=1;exitY=0.675;exitDx=0;exitDy=0;exitPerimeter=0;" edge="1" parent="1">
          <mxGeometry width="50" height="50" relative="1" as="geometry">
            <mxPoint x="641.88" y="-339.9999999999999" as="sourcePoint" />
            <mxPoint x="701.88" y="-340" as="targetPoint" />
          </mxGeometry>
        </mxCell>
        <mxCell id="0ZDQWlUVKnihuqIqSZee-45" value="" style="shape=trapezoid;perimeter=trapezoidPerimeter;whiteSpace=wrap;html=1;fixedSize=1;rotation=-90;" vertex="1" parent="1">
          <mxGeometry x="688.88" y="-343.6" width="80" height="47.19" as="geometry" />
        </mxCell>
        <mxCell id="0ZDQWlUVKnihuqIqSZee-46" style="edgeStyle=orthogonalEdgeStyle;rounded=0;orthogonalLoop=1;jettySize=auto;html=1;entryX=0;entryY=0.5;entryDx=0;entryDy=0;" edge="1" parent="1" source="0ZDQWlUVKnihuqIqSZee-47" target="0ZDQWlUVKnihuqIqSZee-48">
          <mxGeometry relative="1" as="geometry" />
        </mxCell>
        <mxCell id="0ZDQWlUVKnihuqIqSZee-47" value="&lt;font style=&quot;font-size: 8px;&quot;&gt;ULA&lt;br&gt;VETORIAL&lt;/font&gt;" style="text;html=1;align=center;verticalAlign=middle;whiteSpace=wrap;rounded=0;" vertex="1" parent="1">
          <mxGeometry x="698.88" y="-335" width="60" height="30" as="geometry" />
        </mxCell>
        <mxCell id="0ZDQWlUVKnihuqIqSZee-48" value="RAM" style="rounded=0;whiteSpace=wrap;html=1;" vertex="1" parent="1">
          <mxGeometry x="801.88" y="-360" width="90" height="80" as="geometry" />
        </mxCell>
      </root>
    </mxGraphModel>
  </diagram>
</mxfile>
